<?xml version="1.0" encoding="UTF-8"?>
<svg width="45px" height="45px" viewBox="0 0 45 45" version="1.1" xmlns="http://www.w3.org/2000/svg" xmlns:xlink="http://www.w3.org/1999/xlink">
    <!-- Generator: Sketch 59 (86127) - https://sketch.com -->
    <title>书籍</title>
    <desc>Created with Sketch.</desc>
    <g id="页面-1" stroke="none" stroke-width="1" fill="none" fill-rule="evenodd">
        <g id="付款报表" transform="translate(-81.000000, -423.000000)" fill-rule="nonzero">
            <g id="编组-6" transform="translate(53.000000, 396.000000)">
                <g id="书籍" transform="translate(28.000000, 27.000000)">
                    <rect id="矩形" fill="#000000" opacity="0" x="0" y="0" width="45" height="45"></rect>
                    <path d="M6.13748123,4.09123749 C5.00623466,4.09123749 4.09123749,5.00623471 4.09123749,6.13623125 L4.09123749,34.7723938 C4.09123749,35.9023903 5.00623471,36.8173875 6.13623125,36.8173875 L13.8862076,36.8173875 C15.9049514,36.8173875 17.8786954,37.4161357 19.5586902,38.5361322 L22.4999313,40.4961263 L25.4411723,38.5361322 C27.1201907,37.4163397 29.0929782,36.8183276 31.111155,36.8173875 L38.8636313,36.8173875 C39.9936278,36.8173875 40.908625,35.9023903 40.908625,34.7723938 L40.908625,6.13623125 C40.908625,5.00623471 39.9936278,4.09123749 38.8636313,4.09123749 L31.1136549,4.09123749 C30.2636575,4.09123749 28.9711615,4.45873636 27.8811648,5.09373444 C27.3536664,5.39998352 26.9736676,5.71248255 26.7486683,5.97248174 C26.684761,6.04251984 26.6297604,6.1201924 26.5849188,6.20373103 L26.5849188,30.6811563 C26.5849188,31.8109203 25.6690641,32.726775 24.5393,32.726775 C23.409536,32.726775 22.4936813,31.8109203 22.4936813,30.6811563 L22.4936813,6.13748123 C22.4936813,4.95123486 23.0624296,3.9812378 23.6536777,3.29873994 C24.2786984,2.60307732 25.0134173,2.01445764 25.8286711,1.55624524 C27.3786663,0.654997983 29.3749102,0 31.1124049,0 L38.8623813,0 C42.2520186,0 44.9998625,2.74784394 44.9998625,6.13748123 L44.9998625,34.7723938 C44.9998625,38.162031 42.2520186,40.909875 38.8623813,40.909875 L31.1124049,40.909875 C29.9014663,40.9100299 28.7176333,41.2683982 27.7099153,41.9398719 L23.6349278,44.6561136 C22.947723,45.1146224 22.0521395,45.1146224 21.3649347,44.6561136 L17.2899472,41.9398719 C16.2820143,41.2677204 15.0977009,40.9089035 13.8862076,40.908625 L6.13623125,40.908625 C2.74757019,40.9079349 0.000690076079,38.1610548 0,34.7723938 L0,6.13623125 C0.000690245745,2.74708212 2.74833203,0 6.13748123,0 L13.8874576,0 C15.9049514,0 17.8786954,0.598748159 19.5586902,1.71874477 C20.478751,2.3526497 20.7197325,3.60764964 20.0998901,4.53724239 C19.4800478,5.46683514 18.228857,5.7268708 17.2899472,5.12123436 C16.2818748,4.44952459 15.097572,4.09114576 13.8862076,4.09123749 L6.13623125,4.09123749 L6.13748123,4.09123749 Z M7.49997708,15.8337016 C7.49997708,14.6837051 8.39497434,13.749958 9.49997708,13.749958 L15.4999526,13.749958 C16.6049492,13.749958 17.4999465,14.6824552 17.4999465,15.8337016 C17.4999465,16.9836981 16.6049492,17.9161952 15.4999526,17.9161952 L9.49997708,17.9161952 C8.39497434,17.9161952 7.49997708,16.9836981 7.49997708,15.8337016 L7.49997708,15.8337016 Z M9.49997096,24.1661762 C9.49997096,23.6136778 9.7112203,23.0836825 10.0862192,22.6936807 C10.461218,22.3024319 10.9699665,22.0836825 11.499971,22.0836825 L15.4999526,22.0836825 C16.6049492,22.0836825 17.4999465,23.0161797 17.4999465,24.1661762 C17.4999465,25.3161726 16.6049492,26.2499198 15.4999526,26.2499198 L11.499971,26.2499198 C10.3949682,26.2499198 9.49997096,25.3174226 9.49997096,24.1661762 L9.49997096,24.1661762 Z" id="形状" fill="#68E3E2"></path>
                </g>
            </g>
        </g>
    </g>
</svg>