<?xml version="1.0" encoding="UTF-8"?>
<svg width="44px" height="44px" viewBox="0 0 44 44" version="1.1" xmlns="http://www.w3.org/2000/svg" xmlns:xlink="http://www.w3.org/1999/xlink">
    <!-- Generator: Sketch 59 (86127) - https://sketch.com -->
    <title>新空间</title>
    <desc>Created with Sketch.</desc>
    <g id="页面-1" stroke="none" stroke-width="1" fill="none" fill-rule="evenodd">
        <g id="付款报表" transform="translate(-626.000000, -421.000000)">
            <g id="编组-6" transform="translate(53.000000, 396.000000)">
                <g id="新空间" transform="translate(568.000000, 20.000000)">
                    <g id="公司企业">
                        <rect id="矩形" fill="#000000" fill-rule="nonzero" opacity="0" x="0" y="0" width="54" height="54"></rect>
                        <path d="M43.875,48.9375 L10.125,48.9375 C7.340625,48.9375 5.0625,46.659375 5.0625,43.875 L5.0625,18.5625 C5.0625,15.778125 7.340625,13.5 10.125,13.5 L15.1875,13.5 L15.1875,10.125 C15.1875,7.340625 17.465625,5.0625 20.25,5.0625 L43.875,5.0625 C46.659375,5.0625 48.9375,7.340625 48.9375,10.125 L48.9375,43.875 C48.9375,46.659375 46.659375,48.9375 43.875,48.9375 Z M10.125,16.875 C9.196875,16.875 8.4375,17.634375 8.4375,18.5625 L8.4375,43.875 C8.4375,44.803125 9.196875,45.5625 10.125,45.5625 L43.875,45.5625 C44.803125,45.5625 45.5625,44.803125 45.5625,43.875 L45.5625,10.125 C45.5625,9.196875 44.803125,8.4375 43.875,8.4375 L20.25,8.4375 C19.321875,8.4375 18.5625,9.196875 18.5625,10.125 L18.5625,38.8125 C18.5625,39.740625 17.803125,40.5 16.875,40.5 C15.946875,40.5 15.1875,39.740625 15.1875,38.8125 L15.1875,16.875 L10.125,16.875 Z M38.8125,35.4375 L25.3125,35.4375 C24.384375,35.4375 23.625,34.678125 23.625,33.75 C23.625,32.821875 24.384375,32.0625 25.3125,32.0625 L38.8125,32.0625 C39.740625,32.0625 40.5,32.821875 40.5,33.75 C40.5,34.678125 39.740625,35.4375 38.8125,35.4375 Z M38.8125,21.9375 L25.3125,21.9375 C24.384375,21.9375 23.625,21.178125 23.625,20.25 C23.625,19.321875 24.384375,18.5625 25.3125,18.5625 L38.8125,18.5625 C39.740625,18.5625 40.5,19.321875 40.5,20.25 C40.5,21.178125 39.740625,21.9375 38.8125,21.9375 Z" id="形状" fill="#3FA0EF" fill-rule="nonzero"></path>
                    </g>
                </g>
            </g>
        </g>
    </g>
</svg>