<?xml version="1.0" encoding="UTF-8"?>
<svg width="42px" height="42px" viewBox="0 0 42 42" version="1.1" xmlns="http://www.w3.org/2000/svg" xmlns:xlink="http://www.w3.org/1999/xlink">
    <!-- Generator: Sketch 59 (86127) - https://sketch.com -->
    <title>电商</title>
    <desc>Created with Sketch.</desc>
    <g id="页面-1" stroke="none" stroke-width="1" fill="none" fill-rule="evenodd">
        <g id="付款报表" transform="translate(-491.000000, -424.000000)">
            <g id="编组-6" transform="translate(53.000000, 396.000000)">
                <g id="电商" transform="translate(438.000000, 28.000000)">
                    <g id="电商、下单、网络、电脑">
                        <rect id="矩形" fill="#000000" fill-rule="nonzero" opacity="0" x="0" y="0" width="42" height="42"></rect>
                        <path d="M38.417568,0 L3.582432,0 C1.60490721,0.00240676411 0.00240676411,1.60490721 0,3.582432 L0,30.5424 C0.00231421644,32.5199904 1.60484171,34.122593 3.582432,34.125 L14.4375,34.125 C14.4375,37.729944 13.207656,39.021276 12.755904,39.375 L10.5,39.375 C9.77512627,39.375 9.1875,39.9626263 9.1875,40.6875 C9.1875,41.4123737 9.77512627,42 10.5,42 L31.5,42 C32.2248737,42 32.8125,41.4123737 32.8125,40.6875 C32.8125,39.9626263 32.2248737,39.375 31.5,39.375 L29.230656,39.375 C28.812168,39.046896 27.5625,37.758756 27.5625,34.125 L38.417568,34.125 C40.3951583,34.122593 41.9976858,32.5199904 42,30.5424 L42,3.582432 C41.9975932,1.60490721 40.3950928,0.00240676411 38.417568,0 Z M25.988592,39.375 L16.011492,39.375 C16.599492,38.201604 17.0625,36.522528 17.0625,34.125 L24.9375,34.125 C24.9375,36.522528 25.400844,38.201604 25.988592,39.375 Z M39.375,30.5424 C39.3746294,31.0711143 38.9461143,31.4996294 38.4174,31.5 L3.582432,31.5 C3.05371772,31.4996294 2.62520264,31.0711143 2.624832,30.5424 L2.624832,26.25 L18.374832,26.25 C19.0997057,26.25 19.687332,25.6623737 19.687332,24.9375 C19.687332,24.2126263 19.0997057,23.625 18.374832,23.625 L2.624832,23.625 L2.624832,3.582432 C2.62537064,3.05371772 3.05388572,2.62520264 3.5826,2.624832 L38.4174,2.624832 C38.9461143,2.62520264 39.3746294,3.05371772 39.375,3.582432 L39.375,30.5424 L39.375,30.5424 Z M19.6875,30.187332 L22.3125,30.187332 L22.3125,27.562332 L19.6875,27.562332 L19.6875,30.187332 Z M28.419972,10.064208 C28.6539536,10.3198373 28.8343766,10.6197331 28.9506,10.946208 C29.1076589,11.3881098 29.4885392,11.712654 29.9497669,11.7975878 C30.4109946,11.8825217 30.8824982,11.7149418 31.1866669,11.3579738 C31.4908356,11.0010059 31.581459,10.5088818 31.4244,10.06698 C31.1917771,9.41326518 30.8314547,8.81234725 30.364404,8.2992 C29.3542291,7.19276097 27.9251232,6.5625 26.426904,6.5625 L15.79872,6.5625 C12.87762,6.5625 10.5,8.91702 10.5,11.8125 C10.5,14.70798 12.87762,17.0625 15.79872,17.0625 L17.126508,17.0625 C17.8513817,17.0625 18.439008,16.4748737 18.439008,15.75 C18.439008,15.0251263 17.8513817,14.4375 17.126508,14.4375 L15.79872,14.4375 C14.324772,14.4375 13.125,13.259568 13.125,11.8125 C13.125,10.365432 14.324772,9.1875 15.79872,9.1875 L26.426904,9.1875 C27.1849457,9.186654 27.9083465,9.50486257 28.419972,10.064208 L28.419972,10.064208 Z M33.053496,18.455808 L34.790196,16.719108 C35.1272959,16.3815306 35.2547971,15.8876851 35.1232476,15.4291117 C34.991698,14.9705383 34.6217938,14.6193818 34.157004,14.51184 L22.607004,11.845932 C22.1662425,11.7448016 21.7044574,11.8775876 21.384736,12.1973943 C21.0650147,12.517201 20.932352,12.9790215 21.0336,13.419756 L23.698332,24.969756 C23.8058134,25.4345473 24.1569385,25.8044719 24.6154975,25.9360272 C25.0740565,26.0675826 25.5678915,25.9400675 25.905432,25.602948 L27.643476,23.866248 L32.268096,28.4907 C32.5141252,28.7369218 32.847928,28.875264 33.196002,28.875264 C33.544076,28.875264 33.8778788,28.7369218 34.123908,28.4907 L37.6782,24.936408 C37.9244424,24.6903898 38.0627988,24.3565829 38.0627988,24.008502 C38.0627988,23.6604211 37.9244424,23.3266142 37.6782,23.080596 L33.053496,18.455808 Z M33.195792,25.706604 L28.571256,21.082152 C28.3252031,20.8357502 27.9912742,20.6972937 27.643056,20.6972937 C27.2948378,20.6972937 26.9609089,20.8357502 26.714856,21.082152 L25.724076,22.072932 L24.062976,14.87598 L31.259928,16.53708 L30.268728,17.52786 C30.022388,17.7739458 29.8839743,18.1078624 29.8839743,18.45606 C29.8839743,18.8042576 30.022388,19.1381742 30.268728,19.38426 L34.89318,24.008712 L33.195792,25.706604 Z" id="形状" fill="#3FA0EF" fill-rule="nonzero"></path>
                    </g>
                </g>
            </g>
        </g>
    </g>
</svg>