<?xml version="1.0" encoding="UTF-8"?>
<svg width="147px" height="134px" viewBox="0 0 147 134" version="1.1" xmlns="http://www.w3.org/2000/svg" xmlns:xlink="http://www.w3.org/1999/xlink">
    <!-- Generator: Sketch 59 (86127) - https://sketch.com -->
    <title>fsux_图表_双轴图</title>
    <desc>Created with Sketch.</desc>
    <g id="页面-1" stroke="none" stroke-width="1" fill="none" fill-rule="evenodd">
        <g id="画板" transform="translate(-62.000000, -1419.000000)" fill-rule="nonzero">
            <g id="fsux_图表_双轴图" transform="translate(47.000000, 1398.000000)">
                <rect id="矩形" fill="#000000" opacity="0" x="0" y="0" width="176" height="176"></rect>
                <g id="编组-10" transform="translate(15.000000, 21.000000)">
                    <path d="M123.876285,134 L147,134 L147,0 L123.876285,0 L123.876285,134 Z M82.5846334,134 L105.708127,134 L105.708127,60.0119218 L82.5846334,60.0119218 L82.5846334,134 Z M41.2918732,134 L64.4155883,134 L64.4155883,41.1045368 L41.2918732,41.1045368 L41.2918732,134 Z M0,134 L23.1237151,134 L23.1237151,85.496854 L0,85.496854 L0,134 Z" id="形状" fill="#FFFFFF"></path>
                    <path d="M141.32841,28 C142.101621,28 142.875455,28.7751109 143.648666,28.7751109 C145.968922,30.3230459 146.742133,33.4199551 145.19488,35.7427933 L142.875455,38.0656312 C132.821427,42.7102675 121.995018,45.8071769 111.941821,49.6779498 C107.301309,52.0007878 104.208049,55.0976972 101.887793,58.9684699 C98.0213221,66.7108473 94.1548517,75.2272962 90.2881733,83.7429133 C88.7411282,86.8398227 86.420872,89.9367321 84.1014467,92.2593622 C77.1408858,98.452973 67.8606917,101.549882 58.5804976,100.775811 C55.4872381,100.775811 51.6207674,99.2270443 48.5273003,98.4529729 C46.9810858,97.6789014 45.4340408,96.9050379 43.1137846,96.1301349 C33.0603796,91.4852907 21.460137,96.1301349 16.047452,106.19535 C13.7271959,110.066123 12.1799431,114.710967 10.6337286,118.582572 C10.6337286,119.356643 9.86051751,120.130507 9.0866835,120.904578 C7.54046903,121.679481 5.99321624,122.453345 4.44700177,121.679481 C2.89995667,121.679481 1.3537422,120.130715 0.580531281,118.582572 C-0.193510427,117.033806 -0.193510427,115.485663 0.580531281,114.710967 C2.12674575,110.840194 4.44700193,106.19535 5.99321624,102.323746 C7.54046903,99.2268364 9.86051751,96.1301349 12.1799431,93.8081287 C19.1407116,86.8396148 27.6468638,83.7427054 37.7008919,84.5176084 C41.5673626,84.5176084 44.6608297,86.0655434 48.5273003,87.6143099 C50.0743454,88.3883813 51.6207676,89.1624528 53.9410238,89.9363163 C56.2610722,90.7112193 58.5804976,91.4850828 60.9007538,91.4850828 C67.0874806,92.2591542 72.5012041,89.9363163 77.1408857,86.0655434 C78.6879307,84.5176084 80.2341452,82.1947704 81.7811905,79.8719325 C85.6476611,72.1301789 89.5141316,63.6139379 93.3814329,55.0974891 C95.7008583,50.4526449 99.5681597,45.8069688 104.207841,42.7100596 C105.754886,41.936196 108.074312,40.3874295 109.621357,39.6133581 L139.781988,28 L141.32841,28" id="路径" fill="#4FF1CA"></path>
                </g>
            </g>
        </g>
    </g>
</svg>