<?xml version="1.0" encoding="UTF-8"?>
<svg width="137px" height="137px" viewBox="0 0 137 137" version="1.1" xmlns="http://www.w3.org/2000/svg" xmlns:xlink="http://www.w3.org/1999/xlink">
    <!-- Generator: Sketch 59 (86127) - https://sketch.com -->
    <title>fsux_图表_环图</title>
    <desc>Created with Sketch.</desc>
    <g id="页面-1" stroke="none" stroke-width="1" fill="none" fill-rule="evenodd">
        <g id="画板" transform="translate(-109.000000, -1688.000000)" fill-rule="nonzero">
            <g id="fsux_图表_环图" transform="translate(177.000000, 1756.000000) rotate(-180.000000) translate(-177.000000, -1756.000000) translate(90.000000, 1669.000000)">
                <rect id="矩形" fill="#000000" opacity="0" x="0" y="0" width="174" height="174"></rect>
                <path d="M93,43.0883769 C117.750675,46.1934845 130.373407,64.3264469 130.373407,86.309937 C130.373407,92.0231316 129.507031,97.4879266 127.526995,102.455922 L149.059891,115 C153.019964,106.306229 155,96.4943275 155,86.309937 C155,50.5403701 130.125683,21.1048868 93,18 L93,43.0883769 L93,43.0883769 Z" id="路径" fill="#FFFFFF"></path>
                <path d="M80,130.025455 C61.3253012,126.934435 42.775211,108.883526 42.775211,87 C42.775211,65.1162538 61.3253012,47.0655645 80,43.9745455 L80,19 C48.875502,22.0907991 18,51.3927272 18,87 C18,122.607273 48.875502,151.909201 80,155 L80,130.025455 Z" id="路径" fill="#FFFFFF"></path>
                <path d="M121.999938,114 C115.245458,122.618377 106.280674,128.405476 94,130.129196 L94,155 C112.421012,153.153049 131.947393,142.318243 143,126.435512 L121.999938,114 Z" id="路径" fill="#68E3E2"></path>
            </g>
        </g>
    </g>
</svg>