<?xml version="1.0" encoding="UTF-8"?>
<svg width="44px" height="44px" viewBox="0 0 44 44" version="1.1" xmlns="http://www.w3.org/2000/svg" xmlns:xlink="http://www.w3.org/1999/xlink">
    <!-- Generator: Sketch 59 (86127) - https://sketch.com -->
    <title>教材</title>
    <desc>Created with Sketch.</desc>
    <g id="页面-1" stroke="none" stroke-width="1" fill="none" fill-rule="evenodd">
        <g id="付款报表" transform="translate(-354.000000, -423.000000)">
            <g id="编组-6" transform="translate(53.000000, 396.000000)">
                <g id="教材" transform="translate(298.000000, 24.000000)">
                    <g id="书1">
                        <rect id="矩形" fill="#000000" fill-rule="nonzero" opacity="0" x="0" y="0" width="50" height="50"></rect>
                        <path d="M46.3183036,18.2033717 C45.6709438,16.7626015 44.4722589,15.7483412 43.0389835,15.3546588 L45.4994604,12.5457689 C46.8614842,11.0130611 47.1755207,8.87696367 46.3183036,6.96846143 C45.4775752,5.09558496 43.7096274,3.93322539 41.7031418,3.93322539 L14.3375505,3.93322539 L4.6628293,14.982312 C4.31031899,15.377993 4.02506299,15.8196426 3.81380659,16.2921213 C3.10468877,17.873496 3.26667866,19.7846964 4.23487031,21.2797298 C4.88917539,22.2905424 5.83273379,22.9783747 6.91219971,23.3267378 L4.44742573,26.3770136 C3.12937202,27.9062238 2.83727065,30.0060958 3.68489429,31.8549386 C4.31036895,33.2182616 5.44729585,34.1974957 6.81201782,34.6103649 L4.44742573,37.5070452 C3.11982852,39.0472979 2.83317344,41.1771995 3.69863491,43.0658652 C4.5463085,44.9174562 6.30726104,46.0667746 8.29465962,46.0667746 L35.8233901,46.0667746 L45.4994604,35.0177379 C46.8614842,33.4843307 47.1755207,31.3474837 46.3183036,29.4383319 C45.6709438,27.9982112 44.4722589,26.9832514 43.0389835,26.5909682 L45.4994604,23.7814286 C46.8614842,22.2494204 47.1755207,20.1124735 46.3183036,18.2033717 Z M6.59116802,19.7525183 C6.24275493,19.2148339 6.11669067,18.5730204 6.21817163,17.9777251 L23.4761362,17.9777251 L23.4761362,15.1681856 L8.23290161,15.1681856 L15.610285,6.74211538 L41.7030919,6.74211538 C42.601481,6.74211538 43.3681097,7.25646563 43.7562957,8.11842949 C44.067634,8.81315708 44.1376364,9.84930249 43.394142,10.6866331 L34.5505556,20.7859156 L8.45774873,20.7859156 C7.41675659,20.7859156 6.84219731,20.1385558 6.59116802,19.7525183 L6.59116802,19.7525183 Z M41.7030919,29.2133849 C42.601481,29.2133849 43.3681097,29.7290343 43.7562957,30.5904984 C44.067634,31.2844765 44.1376364,32.3212715 43.394142,33.1579026 L34.5505556,43.2579346 L8.29460967,43.2579346 C7.40586401,43.2579346 6.64188354,42.7489807 6.25094937,41.8973598 C6.06867329,41.4968322 5.98902749,40.9797338 6.07951592,40.4490446 L27.6901707,40.4490446 L27.6901707,37.6401047 L7.96403447,37.6401047 L10.2572251,34.8312647 L35.8233901,34.8312647 L40.7429948,29.2133849 L41.7030919,29.2133849 L41.7030919,29.2133849 Z M43.394142,21.9229924 L34.5505556,32.0222749 L8.29460967,32.0222749 C7.39072432,32.0222749 6.62129751,31.5230144 6.23865771,30.6835352 C6.01650879,30.2008634 5.98083306,29.6961066 6.08915937,29.2133349 L16.4539113,29.2133349 L16.4539113,26.404395 L8.03538594,26.404395 L10.3052424,23.595555 L35.8233901,23.595555 L40.7429948,17.9776752 L41.7031418,17.9776752 C42.601531,17.9776752 43.3681596,18.4920254 43.7563457,19.3547388 C44.067684,20.0487668 44.1376364,21.0849622 43.394142,21.9229924 Z" id="形状" fill="#3FA0EF" fill-rule="nonzero"></path>
                    </g>
                </g>
            </g>
        </g>
    </g>
</svg>