<?xml version="1.0" encoding="UTF-8"?>
<svg width="12px" height="20px" viewBox="0 0 12 20" version="1.1" xmlns="http://www.w3.org/2000/svg" xmlns:xlink="http://www.w3.org/1999/xlink">
    <!-- Generator: Sketch 58 (84663) - https://sketch.com -->
    <title>右</title>
    <desc>Created with Sketch.</desc>
    <g id="页面-1" stroke="none" stroke-width="1" fill="none" fill-rule="evenodd">
        <g id="首页" transform="translate(-327.000000, -520.000000)" fill-rule="nonzero">
            <g id="付款" transform="translate(24.000000, 466.000000)">
                <g id="右" transform="translate(295.000000, 50.000000)">
                    <rect id="矩形" fill="#808080" opacity="0" x="0" y="0" width="28" height="28"></rect>
                    <path d="M18.3304297,15.2690234 C17.9938281,15.2690234 17.6588672,15.1407812 17.4023828,14.8845703 L8.74125,6.22152344 C8.22855469,5.70882813 8.22855469,4.87839844 8.74125,4.36542969 C9.25394531,3.85246094 10.084375,3.85273438 10.5973438,4.36542969 L19.2584766,13.0282031 C19.7711719,13.5408984 19.7711719,14.3713281 19.2584766,14.8842969 C19.0019922,15.1407813 18.6670313,15.2690234 18.3304297,15.2690234 L18.3304297,15.2690234 Z" id="路径" fill="#808080"></path>
                    <path d="M9.66929687,24.0190234 C9.33269531,24.0190234 8.99773437,23.8907812 8.74125,23.6345703 C8.22855469,23.121875 8.22855469,22.2914453 8.74125,21.7784766 L17.4023828,13.1157031 C17.9150781,12.6030078 18.7455078,12.6030078 19.2584766,13.1157031 C19.7714453,13.6283984 19.7711719,14.4588281 19.2584766,14.9717969 L10.5973438,23.6342969 C10.3408594,23.8907812 10.0058984,24.0190234 9.66929687,24.0190234 Z" id="路径" fill="#808080"></path>
                </g>
            </g>
        </g>
    </g>
</svg>