<?xml version="1.0" encoding="UTF-8"?>
<svg width="48px" height="48px" viewBox="0 0 48 48" version="1.1" xmlns="http://www.w3.org/2000/svg" xmlns:xlink="http://www.w3.org/1999/xlink">
    <!-- Generator: Sketch 59 (86127) - https://sketch.com -->
    <title>非图</title>
    <desc>Created with Sketch.</desc>
    <g id="页面-1" stroke="none" stroke-width="1" fill="none" fill-rule="evenodd">
        <g id="付款报表" transform="translate(-215.000000, -421.000000)">
            <g id="编组-6" transform="translate(53.000000, 396.000000)">
                <g id="非图" transform="translate(162.000000, 25.000000)">
                    <g id="文具">
                        <rect id="矩形" fill="#000000" fill-rule="nonzero" opacity="0" x="0" y="0" width="48" height="48"></rect>
                        <path d="M17.3949767,2.23255814 L17.3949767,45.9538605 C17.3949767,46.724093 18.020093,47.3492095 18.7903256,47.3492095 L45.7674419,47.3492095 C46.2735095,47.3492095 46.7400373,47.075659 46.9866118,46.6337251 C47.2331863,46.1917913 47.2211521,45.650993 46.9551628,45.2204651 L19.9780465,1.50027905 C19.240186,0.303627891 17.3949767,0.826046531 17.3949767,2.23255814 Z M20.1856744,7.15088372 L43.2658605,44.5573953 L20.1856744,44.5573953 L20.1856744,7.15088372 Z" id="形状" fill="#3FA0EF" fill-rule="nonzero"></path>
                        <path d="M24.8372093,28.2786977 L24.8372093,38.5116279 C24.8372093,39.2818605 25.4623256,39.9069767 26.2325581,39.9069767 L31.8139535,39.9069767 C32.3064958,39.9069767 32.7625245,39.6472024 33.0138436,39.2236026 C33.2651626,38.8000029 33.2745379,38.275284 33.0385116,37.8429767 L27.4571163,27.6111628 C26.7650233,26.3419535 24.8372093,26.8331163 24.8372093,28.2786977 L24.8372093,28.2786977 Z M27.627907,33.751814 L29.4630697,37.116279 L27.627907,37.116279 L27.627907,33.751814 Z M22.512,12.4654884 L22.512,15.256186 L18.7903256,15.256186 L18.7903256,12.4654884 L22.512,12.4654884 Z M22.512,18.0468837 L22.512,20.8375814 L18.7903256,20.8375814 L18.7903256,18.0468837 L22.512,18.0468837 Z M22.512,22.6973023 L22.512,25.488 L18.7903256,25.488 L18.7903256,22.6973023 L22.512,22.6973023 Z M22.512,28.2786977 L22.512,31.0693953 L18.7903256,31.0693953 L18.7903256,28.2786977 L22.512,28.2786977 Z M22.512,33.860093 L22.512,36.6507907 L18.7903256,36.6507907 L18.7903256,33.860093 L22.512,33.860093 Z M22.512,39.4414884 L22.512,42.232186 L18.7903256,42.232186 L18.7903256,39.4414884 L22.512,39.4414884 Z M9.95274417,38.6824186 L9.95274417,41.4731163 L4.66158141,41.4731163 L4.66158141,38.6824186 L9.95274417,38.6824186 Z M10.3434419,1.13748839 L4.27534884,1.13748839 C2.06734884,1.13748839 0.238883719,2.87106975 0.238883719,5.03553487 L0.238883719,9.31758141 L14.3787907,9.31758141 L14.3787907,5.03665116 C14.3776744,2.87218603 12.548093,1.13860462 10.3434419,1.13748839 Z M10.3434419,3.92818603 L10.4807442,3.93488372 C11.1103256,3.99851161 11.588093,4.48744186 11.588093,5.03665116 L11.5869767,6.52688372 L3.02958141,6.52688372 L3.02958141,5.03553487 C3.02958141,4.44613955 3.57655814,3.92818603 4.27423256,3.92818603 L10.3434419,3.92818603 L10.3434419,3.92818603 Z" id="形状" fill="#3FA0EF" fill-rule="nonzero"></path>
                        <path d="M3.06083719,11.0924651 L3.05860467,34.1826977 L7.28483719,42.795907 L11.5546047,34.1726512 L11.5546047,11.2409302 L14.3453023,11.2409302 L14.3453023,34.4986047 C14.3453023,34.6593488 14.3173953,34.8189768 14.263814,34.9696744 L14.2013023,35.1181395 L8.53060467,46.572279 C8.03944186,47.5646512 6.66418608,47.6048372 6.09934884,46.6973023 L6.02790698,46.567814 L0.411906984,35.1214884 C0.341568574,34.9784404 0.296261819,34.8243975 0.277953469,34.6660465 L0.270139547,34.5064186 L0.270139547,11.0924651 L3.06083719,11.0924651 Z" id="路径" fill="#3FA0EF" fill-rule="nonzero"></path>
                        <polygon id="路径" fill="#3FA0EF" fill-rule="nonzero" points="8.70362789 11.0913488 8.70362789 33.8299535 5.91293025 33.8299535 5.91293025 11.0913488"></polygon>
                        <polygon id="路径" fill="#3FA0EF" fill-rule="nonzero" points="12.8852093 32.435721 12.8852093 35.2264186 1.73023256 35.2264186 1.73023256 32.435721"></polygon>
                    </g>
                </g>
            </g>
        </g>
    </g>
</svg>