<?xml version="1.0" encoding="UTF-8"?>
<svg width="144px" height="135px" viewBox="0 0 144 135" version="1.1" xmlns="http://www.w3.org/2000/svg" xmlns:xlink="http://www.w3.org/1999/xlink">
    <!-- Generator: Sketch 59 (86127) - https://sketch.com -->
    <title>图表</title>
    <desc>Created with Sketch.</desc>
    <g id="页面-1" stroke="none" stroke-width="1" fill="none" fill-rule="evenodd">
        <g id="画板" transform="translate(-518.000000, -1422.000000)" fill-rule="nonzero">
            <g id="图表" transform="translate(600.500000, 1511.000000) rotate(-225.000000) translate(-600.500000, -1511.000000) translate(508.000000, 1418.000000)">
                <rect id="矩形" fill="#000000" opacity="0" x="0.757359313" y="0.242640687" width="184" height="184"></rect>
                <path d="M93.1413448,52.5963871 L93.1413448,122.938159 L93.2951163,123.112979 L46.1028531,169.595345 C57.621103,179.307843 72.4879182,185.162951 88.7252214,185.162951 C125.316866,185.162951 154.979185,155.451711 154.979185,118.797169 C154.979185,83.6330215 127.672068,54.8759728 93.1413448,52.5963871 Z M86.1675554,43.1629509 C46.8500375,43.1629509 14.9791847,74.9419233 14.9791847,114.143473 L86.1675554,114.143473 L86.1675554,43.1629509 Z M94.0319789,123.494341 L93.8392439,123.155404 L92.9850911,124.199235 L94.0319789,124.199235 L94.0319789,123.494341 Z" id="形状" fill="#FFFFFF"></path>
                <path d="M18.512933,120.886562 C19.5577465,136.717311 26.1764396,151.027776 36.4263605,161.886562 L88.512933,120.886562 L18.512933,120.886562 Z" id="路径" fill="#68E3E2"></path>
            </g>
        </g>
    </g>
</svg>